<svg width="353" height="338" viewBox="0 0 353 338" fill="none" xmlns="http://www.w3.org/2000/svg">
<path d="M312.048 225.027C317.124 220.277 314.848 211.785 308.077 210.209L186.179 181.841C179.784 180.353 174.11 186.218 175.809 192.56L206.325 306.445C208.024 312.788 215.87 315.03 220.665 310.544L312.048 225.027Z" fill="black" stroke="white" stroke-width="5"/>
<path d="M167.07 181.759C173.722 183.78 179.938 177.564 177.917 170.912L141.536 51.1606C139.627 44.8781 131.711 42.897 127.068 47.5398L43.6984 130.909C39.0555 135.552 41.0367 143.469 47.3191 145.377L167.07 181.759Z" fill="black" stroke="white" stroke-width="5"/>
<path d="M129.297 310.048C134.047 315.124 142.539 312.849 144.114 306.078L172.483 184.179C173.971 177.784 168.106 172.11 161.763 173.81L47.8785 204.325C41.5363 206.024 39.2938 213.871 43.7802 218.665L129.297 310.048Z" fill="black" stroke="white" stroke-width="5"/>
<path d="M174.549 167.071C172.528 173.722 178.744 179.939 185.396 177.918L305.147 141.536C311.43 139.627 313.411 131.711 308.768 127.068L225.399 43.6986C220.756 39.0558 212.839 41.0369 210.931 47.3194L174.549 167.071Z" fill="black" stroke="white" stroke-width="5"/>
</svg>
