<svg width="497" height="333" viewBox="0 0 497 333" fill="none" xmlns="http://www.w3.org/2000/svg">
<rect x="217.112" y="109.137" width="25.3438" height="166.613" fill="black" stroke="white" stroke-width="3"/>
<path d="M211.899 114.235L229.559 69.8532L247.219 114.235H211.899Z" fill="black" stroke="white" stroke-width="3"/>
<path d="M219.736 81.5C224.377 84.5935 248.093 80.9844 239.719 62.4985" stroke="white" stroke-width="3"/>
<path d="M221.307 54.8909C222.129 55.974 222.338 57.5576 221.738 59.4079C221.14 61.252 219.767 63.2136 217.704 64.779C215.641 66.3445 213.383 67.1389 211.446 67.2192C209.502 67.2997 208.033 66.6719 207.211 65.5888C206.389 64.5057 206.18 62.922 206.78 61.0718C207.379 59.2277 208.751 57.2661 210.814 55.7007C212.877 54.1352 215.135 53.3407 217.072 53.2605C219.016 53.18 220.485 53.8078 221.307 54.8909Z" fill="black" stroke="white" stroke-width="3"/>
<line x1="192.254" y1="73.9238" x2="222.342" y2="83.6059" stroke="white" stroke-width="3" stroke-linecap="round"/>
<path d="M224.335 37.1886L240.068 62.9653" stroke="white" stroke-width="3" stroke-linecap="round"/>
<line x1="215.461" y1="141.98" x2="190.567" y2="141.98" stroke="white" stroke-width="3" stroke-linecap="round"/>
<rect x="159.531" y="276.284" width="138.849" height="54.6069" rx="9.64972" fill="black" stroke="white" stroke-width="3"/>
<path d="M167.65 127.116C167.705 126.365 168.331 125.784 169.084 125.784H186.342C187.088 125.784 187.709 126.353 187.774 127.096L194.492 204.003C194.566 204.843 193.904 205.566 193.06 205.566H163.435C162.599 205.566 161.94 204.856 162.001 204.023L167.65 127.116Z" fill="black" stroke="white" stroke-width="3"/>
<path d="M200.165 207.066C200.165 210.15 197.974 213.232 193.802 215.627C189.671 217.998 183.865 219.513 177.37 219.513C170.875 219.513 165.069 217.998 160.938 215.627C156.766 213.232 154.575 210.15 154.575 207.066C154.575 203.981 156.766 200.899 160.938 198.505C165.069 196.133 170.875 194.619 177.37 194.619C183.865 194.619 189.671 196.133 193.802 198.505C197.974 200.899 200.165 203.981 200.165 207.066Z" fill="black" stroke="white" stroke-width="3"/>
<path d="M231.382 325.508C258.046 325.508 280.102 307.151 280.102 284.006C280.102 260.861 258.046 242.504 231.382 242.504C204.717 242.504 182.661 260.861 182.661 284.006C182.661 307.151 204.717 325.508 231.382 325.508Z" fill="black" stroke="white" stroke-width="3"/>
<circle cx="232.366" cy="51.337" r="49.1896" fill="black" stroke="white" stroke-width="3"/>
<circle cx="232.626" cy="51.0805" r="20.67" fill="black" stroke="white" stroke-width="3"/>
<path d="M246.077 281.545C246.077 288.798 239.319 294.997 230.563 294.997C221.807 294.997 215.049 288.798 215.049 281.545C215.049 274.292 221.807 268.094 230.563 268.094C239.319 268.094 246.077 274.292 246.077 281.545Z" fill="black" stroke="white" stroke-width="3"/>
<circle cx="229.533" cy="255.251" r="5.20256" fill="black" stroke="white" stroke-width="3"/>
<circle cx="206.847" cy="261.954" r="5.20256" fill="black" stroke="white" stroke-width="3"/>
<circle cx="229.533" cy="314.028" r="5.20256" fill="black" stroke="white" stroke-width="3"/>
<circle cx="206.847" cy="303.2" r="5.20256" fill="black" stroke="white" stroke-width="3"/>
<circle cx="253.765" cy="305.778" r="5.20256" fill="black" stroke="white" stroke-width="3"/>
<circle cx="196.019" cy="281.546" r="5.20256" fill="black" stroke="white" stroke-width="3"/>
<circle cx="267.17" cy="281.546" r="5.20256" fill="black" stroke="white" stroke-width="3"/>
<path d="M163.418 204.356L164.887 187.464L191.032 186.142L193.382 204.356H163.418Z" fill="black"/>
<rect x="412.851" y="136.824" width="25.3438" height="166.8" fill="black" stroke="white" stroke-width="3"/>
<path d="M407.637 141.931L425.298 97.498L442.959 141.931H407.637Z" fill="black" stroke="white" stroke-width="3"/>
<path d="M420.075 64.7976L435.807 90.6027" stroke="white" stroke-width="3" stroke-linecap="round"/>
<path d="M487.566 46.4946L431.817 57.8849C428.934 58.474 426.863 61.0107 426.863 63.9538V76.5874C426.863 79.6118 429.047 82.194 432.029 82.6958L487.778 92.076C491.556 92.7118 495 89.7992 495 85.9676V52.5635C495 48.6442 491.406 45.7101 487.566 46.4946Z" fill="black" stroke="white" stroke-width="3"/>
<rect x="368.897" y="291.151" width="111.594" height="39.7406" rx="9.64972" fill="black" stroke="white" stroke-width="3"/>
<rect x="407.302" y="125.24" width="111.594" height="39.7406" rx="9.64972" transform="rotate(-90 407.302 125.24)" fill="black" stroke="white" stroke-width="3"/>
<path d="M142.544 164.78L120.806 128.169C119.69 126.289 117.666 125.137 115.48 125.137H1.31445" stroke="white" stroke-width="3"/>
<path d="M177.335 43.9634L155.597 7.35181C154.481 5.47217 152.457 4.31995 150.271 4.31995H36.1055" stroke="white" stroke-width="3"/>
<path d="M168.561 267.605L135.587 240.519C134.479 239.609 133.089 239.112 131.655 239.112H0.0761719" stroke="white" stroke-width="3"/>
<path d="M339.832 332.564L348.492 317.564L331.172 317.564L339.832 332.564ZM338.332 8.9126L338.332 319.064L341.332 319.064L341.332 8.9126L338.332 8.9126Z" fill="white"/>
<path d="M339.832 3.64746L348.492 18.6475L331.172 18.6475L339.832 3.64746ZM338.332 328.538L338.332 17.1475L341.332 17.1475L341.332 328.538L338.332 328.538Z" fill="white"/>
</svg>
