<svg width="475" height="321" viewBox="0 0 475 321" fill="none" xmlns="http://www.w3.org/2000/svg">
<line y1="-2.61107" x2="316.766" y2="-2.61107" transform="matrix(0.707812 0.706401 -0.709383 0.704823 -91.7434 171.414)" stroke="white" stroke-width="5.22214"/>
<line y1="-2.61107" x2="316.765" y2="-2.61107" transform="matrix(0.707653 0.706561 -0.709224 0.704983 -66.6884 149.574)" stroke="white" stroke-width="5.22214"/>
<line y1="-2.61107" x2="316.765" y2="-2.61107" transform="matrix(0.707653 0.706561 -0.709224 0.704983 -41.6335 127.732)" stroke="white" stroke-width="5.22214"/>
<line y1="-2.61107" x2="316.765" y2="-2.61107" transform="matrix(0.707653 0.706561 -0.709224 0.704983 -16.5786 105.891)" stroke="white" stroke-width="5.22214"/>
<line y1="-2.61107" x2="403.766" y2="-2.61107" transform="matrix(0.707653 0.706561 -0.709224 0.704983 -22.3065 53.3164)" stroke="white" stroke-width="5.22214"/>
<line y1="-2.61107" x2="450.921" y2="-2.61107" transform="matrix(0.707653 0.706561 -0.709224 0.704983 -13.9362 14.8184)" stroke="white" stroke-width="5.22214"/>
<line y1="-2.61107" x2="492.182" y2="-2.61107" transform="matrix(0.707653 0.706561 -0.709224 0.704983 -3.48042 -21.6016)" stroke="white" stroke-width="5.22214"/>
<line y1="-2.61107" x2="542.284" y2="-2.61107" transform="matrix(0.707653 0.706561 -0.709224 0.704983 3.84702 -61.1406)" stroke="white" stroke-width="5.22214"/>
<line x1="11.9779" y1="-103.567" x2="436.978" y2="321.433" stroke="white" stroke-width="5.22214"/>
<line y1="-2.61107" x2="680.802" y2="-2.61107" transform="matrix(0.707653 0.706561 -0.709224 0.704983 4.9455 -153.756)" stroke="white" stroke-width="5.22214"/>
<line y1="-2.61107" x2="592.387" y2="-2.61107" transform="matrix(0.707653 0.706561 -0.709224 0.704983 61.2843 -144.363)" stroke="white" stroke-width="5.22214"/>
<line y1="-2.61107" x2="545.231" y2="-2.61107" transform="matrix(0.707653 0.706561 -0.709224 0.704983 103.024 -149.545)" stroke="white" stroke-width="5.22214"/>
<line y1="-2.61107" x2="450.921" y2="-2.61107" transform="matrix(0.707653 0.706561 -0.709224 0.704983 161.448 -138.068)" stroke="white" stroke-width="5.22214"/>
<line y1="-2.61107" x2="380.188" y2="-2.61107" transform="matrix(0.707653 0.706561 -0.709224 0.704983 211.53 -134.92)" stroke="white" stroke-width="5.22214"/>
<line y1="-2.61107" x2="353.664" y2="-2.61107" transform="matrix(0.707653 0.706561 -0.709224 0.704983 245.971 -147.391)" stroke="white" stroke-width="5.22214"/>
</svg>
