<svg width="373" height="469" viewBox="0 0 373 469" fill="none" xmlns="http://www.w3.org/2000/svg">
<mask id="mask0_243_255" style="mask-type:alpha" maskUnits="userSpaceOnUse" x="0" y="0" width="373" height="469">
<rect x="0.000183105" width="373" height="469" fill="white"/>
</mask>
<g mask="url(#mask0_243_255)">
<rect x="3.57742" width="39.2771" height="156.663" transform="matrix(0.715484 -0.698629 0.715484 0.698629 270.099 1.13894)" fill="#D9D9D9" stroke="black" stroke-width="5"/>
<rect x="3.57742" width="39.2771" height="325.533" transform="matrix(0.715484 -0.698629 0.715484 0.698629 156.05 -4.4177)" fill="#D9D9D9" stroke="black" stroke-width="5"/>
<rect x="3.57742" width="39.2771" height="466.602" transform="matrix(0.715484 -0.698629 0.715484 0.698629 54.1549 1.89284)" fill="#D9D9D9" stroke="black" stroke-width="5"/>
<rect x="3.57742" width="39.2771" height="589.137" transform="matrix(0.715484 -0.698629 0.715484 0.698629 -42.4319 13.386)" fill="#D9D9D9" stroke="black" stroke-width="5"/>
<rect x="3.57742" width="39.2771" height="535.592" transform="matrix(0.715484 -0.698629 0.715484 0.698629 -29.9291 131.399)" fill="#D9D9D9" stroke="black" stroke-width="5"/>
<rect x="3.57742" width="39.2771" height="406.88" transform="matrix(0.715484 -0.698629 0.715484 0.698629 -45.0367 222.452)" fill="#D9D9D9" stroke="black" stroke-width="5"/>
<rect x="3.57742" width="39.2771" height="236.979" transform="matrix(0.715484 -0.698629 0.715484 0.698629 -33.0548 339.956)" fill="#D9D9D9" stroke="black" stroke-width="5"/>
<rect x="3.57742" width="39.2771" height="83.5541" transform="matrix(0.715484 -0.698629 0.715484 0.698629 -35.3995 443.471)" fill="#D9D9D9" stroke="black" stroke-width="5"/>
</g>
</svg>
