<svg width="167" height="78" viewBox="0 0 167 78" fill="none" xmlns="http://www.w3.org/2000/svg">
<path d="M37.4 77.6C30.6 77.6 24.4 76.0667 18.8 73C13.2 69.9333 8.73333 65.5333 5.4 59.8C2.2 54.0667 0.6 47.3333 0.6 39.6C0.6 31.8667 2.53333 25.0667 6.4 19.2C10.2667 13.3333 15.3333 8.8 21.6 5.6C27.8667 2.4 34.4667 0.799994 41.4 0.799994C49.8 0.799994 57.4667 3.26666 64.4 8.19999C71.4667 13.1333 79 20.1333 87 29.2C102.467 10.2667 116.6 0.799994 129.4 0.799994C136.2 0.799994 142.4 2.33333 148 5.39999C153.6 8.46666 158 12.8667 161.2 18.6C164.533 24.3333 166.2 31.0667 166.2 38.8C166.2 46.5333 164.267 53.3333 160.4 59.2C156.533 65.0667 151.467 69.6 145.2 72.8C138.933 76 132.333 77.6 125.4 77.6C117 77.6 109.267 75.1333 102.2 70.2C95.2667 65.2667 87.8 58.2667 79.8 49.2C64.3333 68.1333 50.2 77.6 37.4 77.6ZM133.8 66.4C137.8 66.4 141.733 65.1333 145.6 62.6C149.467 60.0667 152.667 56.5333 155.2 52C157.733 47.4667 159 42.4 159 36.8C159 30.8 157.6 25.6 154.8 21.2C152.133 16.6667 148.533 13.2 144 10.8C139.467 8.4 134.6 7.2 129.4 7.2C118.733 7.2 106.067 16.2667 91.4 34.4L93.8 37.2C102.067 46.9333 109.133 54.2667 115 59.2C120.867 64 127.133 66.4 133.8 66.4ZM37.4 71.2C48.0667 71.2 60.7333 62.1333 75.4 44L73 41.2C64.7333 31.4667 57.6667 24.2 51.8 19.4C45.9333 14.4667 39.6667 12 33 12C29 12 25.0667 13.2667 21.2 15.8C17.3333 18.3333 14.1333 21.8667 11.6 26.4C9.06667 30.9333 7.8 36 7.8 41.6C7.8 47.6 9.13333 52.8667 11.8 57.4C14.6 61.8 18.2667 65.2 22.8 67.6C27.3333 70 32.2 71.2 37.4 71.2Z" fill="white"/>
</svg>
