<svg width="110" height="95" viewBox="0 0 110 95" fill="none" xmlns="http://www.w3.org/2000/svg">
<path d="M24.2 94.4C23.4 94.4 22.4667 94.0667 21.4 93.4C20.3333 92.8667 19.4 92.1333 18.6 91.2C16.7333 89.3333 15.8 87.4667 15.8 85.6C15.8 83.7333 16.2 82.2667 17 81.2C17.9333 80.1333 19.4 78.8667 21.4 77.4C23.1333 76.0667 24.6 74.8667 25.8 73.8C27 72.6 28.0667 71.1333 29 69.4C32.4667 63.1333 34.2 45.3333 34.2 16H19C14.7333 16 11.1333 17.2 8.2 19.6C5.26667 21.8667 3.4 24.8 2.6 28.4H0.6C0.6 25.3333 1.33333 21.6 2.8 17.2C4.26667 12.8 6.06667 9.4 8.2 7C10.0667 4.86666 12.2667 3.33333 14.8 2.4C17.4667 1.33333 20.0667 0.799994 22.6 0.799994H109.8V16H71V47.6C71 58.2667 72.3333 66.2 75 71.4C77.8 76.6 82.2667 79.2 88.4 79.2C91.6 79.2 94.2667 78 96.4 75.6C98.6667 73.0667 100.333 69.8667 101.4 66C102.2 66.9333 102.867 68.3333 103.4 70.2C103.933 72.0667 104.2 73.8667 104.2 75.6C104.2 80.9333 102.667 85.4 99.6 89C96.5333 92.6 92.2 94.4 86.6 94.4C79.4 94.4 74.0667 92 70.6 87.2C67.1333 82.2667 65.4 76.2667 65.4 69.2V16H39V69.8C39 76.3333 37.6667 82.0667 35 87C32.3333 91.9333 28.7333 94.4 24.2 94.4Z" fill="white"/>
</svg>
