<svg width="71" height="224" viewBox="0 0 71 224" fill="none" xmlns="http://www.w3.org/2000/svg">
<path d="M16.4 223.8C11.8667 223.8 8.06667 222.267 5 219.2C2.06667 216.267 0.6 212.6 0.6 208.2C0.6 204.333 1.66667 200.867 3.8 197.8C5.93333 194.867 9.06667 193.4 13.2 193.4C16.1333 193.4 18.4 194.133 20 195.6C21.7333 197.2 22.6 199.4 22.6 202.2C22.6 204.467 21.6667 207.067 19.8 210C18.7333 211.467 18.2 213 18.2 214.6C18.2 215.667 18.4 216.4 18.8 216.8C19.3333 217.2 20.2 217.4 21.4 217.4C23.4 217.4 25.4667 216.6 27.6 215C29.7333 213.4 31.4667 211.067 32.8 208C34.2667 204.933 35 201.4 35 197.4C35 187.667 34.5333 177.267 33.6 166.2C32.8 155.267 31.6667 142.333 30.2 127.4C28.6 111.8 27.4 99.2667 26.6 89.8C25.8 80.3333 25.4 72.2 25.4 65.4C25.4 45.1333 27.5333 29.2667 31.8 17.8C36.2 6.33333 44 0.599995 55.2 0.599995C59.7333 0.599995 63.4667 2.13333 66.4 5.2C69.4667 8.13333 71 11.8 71 16.2C71 20.0667 69.9333 23.5333 67.8 26.6C65.6667 29.5333 62.5333 31 58.4 31C55.4667 31 53.1333 30.2667 51.4 28.8C49.8 27.2 49 25 49 22.2C49 19.9333 49.9333 17.3333 51.8 14.4C52.8667 12.9333 53.4 11.4 53.4 9.8C53.4 8.73333 53.1333 7.99999 52.6 7.59999C52.2 7.19999 51.4 7 50.2 7C48.2 7 46.1333 7.79999 44 9.39999C41.8667 11 40.0667 13.3333 38.6 16.4C37.2667 19.4667 36.6 23 36.6 27C36.6 36.7333 37 47.1333 37.8 58.2C38.7333 69.1333 39.9333 82.0667 41.4 97C43 112.6 44.2 125.133 45 134.6C45.8 144.067 46.2 152.2 46.2 159C46.2 179.267 44 195.133 39.6 206.6C35.3333 218.067 27.6 223.8 16.4 223.8Z" fill="white"/>
</svg>
