<svg width="756" height="1156" viewBox="0 0 756 1156" fill="none" xmlns="http://www.w3.org/2000/svg">
<ellipse cx="252.004" cy="949.925" rx="52" ry="30" transform="rotate(-48.6296 252.004 949.925)" fill="white"/>
<rect x="233.499" y="970.938" width="58" height="92" transform="rotate(-48.6296 233.499 970.938)" fill="white"/>
<path d="M288.927 988.502C288.048 983.993 291.676 979.874 296.259 980.177L414.658 988.002C420.454 988.385 423.289 995.254 419.45 999.613L371.612 1053.93L323.774 1108.25C319.935 1112.61 312.763 1110.66 311.651 1104.96L288.927 988.502Z" fill="white"/>
<path d="M250.619 936.567C195.641 897.8 19.4585 465.711 63 386C138.024 248.655 294.639 493.247 23 444C-163.165 410.249 -80.9355 147.485 -38.9999 110" stroke="white" stroke-width="10"/>
</svg>
