<svg width="597" height="532" viewBox="0 0 597 532" fill="none" xmlns="http://www.w3.org/2000/svg">
<path d="M135 410C179.667 480 304.2 591.6 445 478C577.8 364.4 679 189.333 713 116" stroke="white" stroke-width="10"/>
<path d="M424.902 160.057C432.959 89.6835 409.108 57.2421 393.958 44.5719C387.45 40.356 370.646 29.5701 355.49 20.1532C337.034 9.69519 327.161 22.472 324.531 30.1677C311.877 52.1249 284.371 100.135 275.579 116.519C265.843 130.405 272.107 140.715 276.456 144.134C287.909 150.577 312.772 163.289 322.658 169.231C336.26 178.995 336.14 194.474 328.598 210.617C291.512 290.007 266.125 324.659 247.768 347.113C233.083 365.076 220.245 363.542 215.662 360.529C205.563 354.869 182.457 341.92 170.826 335.41C156.939 328.679 149.057 338.722 146.851 344.584C132.536 369.737 102.505 422.756 96.8993 433.61C91.1525 444.739 90.3354 451.687 95.6744 455.943C110.414 464.83 141.218 482.936 146.518 484.267C210.375 502.226 276.118 442.664 301.02 412.611C375.526 329.384 419.094 215.25 424.902 160.057Z" fill="white"/>
<rect width="146.809" height="17" transform="matrix(0.482163 -0.876082 -0.876082 -0.482163 139.556 483.17)" fill="black"/>
<rect width="149.725" height="17" transform="matrix(0.487606 -0.873064 -0.873064 -0.487606 317.189 170.203)" fill="black"/>
</svg>
