<svg width="792" height="1139" viewBox="0 0 792 1139" fill="none" xmlns="http://www.w3.org/2000/svg">
<path d="M545.5 4.5C1245.5 616.088 212 379.534 90.3849 514C-29 646 170.321 754.882 90.3849 793" stroke="white" stroke-width="10"/>
<path d="M448.728 880.197C490.892 937.114 486.456 977.135 479.672 995.683C476.144 1002.59 466.984 1020.33 458.566 1036.06C447.812 1054.35 432.873 1048.22 426.748 1042.87C404.811 1030.18 356.985 1002.36 341.179 992.564C325.804 985.407 326.074 973.346 328.131 968.211C334.827 956.904 350.004 933.464 355.595 923.375C362.492 908.118 354.649 894.773 340.046 884.563C268.233 834.353 228.922 817.037 201.797 806.77C180.098 798.556 169.747 806.303 167.284 811.204C161.368 821.155 147.832 843.922 141.015 855.376C132.354 868.149 120.506 863.392 115.665 859.418C90.691 844.792 38.1732 813.892 27.892 807.295C17.3511 800.531 13.1693 794.922 15.6647 788.566C23.9861 773.501 41.6101 742.418 45.5346 738.616C91.857 691.134 178.573 709.845 215.166 723.42C321.303 758.244 416.101 835.303 448.728 880.197Z" fill="white"/>
<rect x="40.0542" y="743.047" width="146.809" height="17" transform="rotate(31.1733 40.0542 743.047)" fill="black"/>
<rect x="350.373" y="925.268" width="149.725" height="17" transform="rotate(30.8167 350.373 925.268)" fill="black"/>
</svg>
